<?xml version="1.0" encoding="UTF-8" standalone="no"?>
<!-- Uploaded to: SVG Repo, www.svgrepo.com, Generator: SVG Repo Mixer Tools -->

<svg
   version="1.1"
   id="_x32_"
   width="800px"
   height="800px"
   viewBox="0 0 512 512"
   xml:space="preserve"
   sodipodi:docname="icon-dark.svg"
   inkscape:version="1.4 (e7c3feb100, 2024-10-09)"
   xmlns:inkscape="http://www.inkscape.org/namespaces/inkscape"
   xmlns:sodipodi="http://sodipodi.sourceforge.net/DTD/sodipodi-0.dtd"
   xmlns="http://www.w3.org/2000/svg"
   xmlns:svg="http://www.w3.org/2000/svg"><defs
   id="defs6" /><sodipodi:namedview
   id="namedview6"
   pagecolor="#000000"
   bordercolor="#000000"
   borderopacity="0.25"
   inkscape:showpageshadow="2"
   inkscape:pageopacity="0.0"
   inkscape:pagecheckerboard="0"
   inkscape:deskcolor="#d1d1d1"
   inkscape:zoom="1.01125"
   inkscape:cx="400"
   inkscape:cy="400"
   inkscape:window-width="1920"
   inkscape:window-height="1029"
   inkscape:window-x="0"
   inkscape:window-y="27"
   inkscape:window-maximized="1"
   inkscape:current-layer="_x32_" />
<style
   type="text/css"
   id="style1">
<![CDATA[
	.st0{fill:#000000;}
]]>
</style>
<g
   id="g6"
   style="mix-blend-mode:normal;fill:#ffffff">
	<path
   class="st0"
   d="m 210.781,210.797 3.875,-18.859 -63.031,-41.578 c -0.344,-0.234 -0.844,-0.188 -1.156,0.125 -0.297,0.297 -0.344,0.797 -0.109,1.156 l 41.578,63.016 z"
   id="path1"
   style="fill:#ffffff" />
	<path
   class="st0"
   d="m 320.063,297.344 -18.844,3.875 -3.875,18.844 63.031,41.578 c 0.344,0.25 0.844,0.188 1.156,-0.125 0.297,-0.297 0.344,-0.781 0.094,-1.141 z"
   id="path2"
   style="fill:#ffffff" />
	<path
   class="st0"
   d="m 320.063,214.656 41.578,-63.016 c 0.234,-0.359 0.188,-0.859 -0.109,-1.156 -0.313,-0.313 -0.813,-0.359 -1.156,-0.125 l -63.031,41.578 3.875,18.859 z"
   id="path3"
   style="fill:#ffffff" />
	<path
   class="st0"
   d="m 191.938,297.344 -41.578,63.031 c -0.234,0.359 -0.188,0.844 0.109,1.141 0.313,0.313 0.813,0.375 1.156,0.125 l 63.031,-41.578 -3.875,-18.844 z"
   id="path4"
   style="fill:#ffffff" />
	<path
   class="st0"
   d="M 436.531,255.094 287.437,224.563 256.906,75.484 C 256.812,75.046 256.437,74.75 256,74.75 c -0.437,0 -0.813,0.297 -0.906,0.734 L 224.563,224.562 75.469,255.094 c -0.406,0.094 -0.719,0.469 -0.719,0.906 0,0.437 0.313,0.813 0.719,0.906 l 149.094,30.547 30.531,149.063 c 0.094,0.438 0.469,0.734 0.906,0.734 0.437,0 0.813,-0.297 0.906,-0.734 l 30.531,-149.063 149.094,-30.547 c 0.406,-0.094 0.719,-0.469 0.719,-0.906 0,-0.437 -0.312,-0.812 -0.719,-0.906 z M 256,278.344 c -12.344,0 -22.344,-10.016 -22.344,-22.344 0,-12.328 10,-22.344 22.344,-22.344 12.344,0 22.344,10.016 22.344,22.344 0,12.328 -10,22.344 -22.344,22.344 z"
   id="path5"
   style="fill:#ffffff" />
	<path
   class="st0"
   d="M 491.844,156.406 C 472.344,110.437 439.906,71.422 399.078,43.797 378.656,30 356.125,19.047 332.062,11.547 307.999,4.047 282.406,0 256,0 220.781,0 187.047,7.188 156.406,20.156 110.437,39.656 71.422,72.094 43.797,112.922 29.984,133.344 19.031,155.875 11.531,179.938 4.031,204.001 0,229.594 0,256 c 0,35.234 7.188,68.969 20.156,99.594 19.5,45.969 51.922,84.984 92.766,112.609 20.422,13.813 42.953,24.766 67.016,32.266 24.063,7.5 49.656,11.531 76.062,11.531 35.219,0 68.969,-7.188 99.594,-20.172 45.969,-19.469 84.984,-51.922 112.609,-92.75 13.813,-20.422 24.766,-42.953 32.266,-67.016 C 507.969,307.999 512,282.406 512,256 c 0,-35.219 -7.187,-68.953 -20.156,-99.594 z m -57.531,174.813 c -14.688,34.672 -39.313,64.328 -70.234,85.219 -15.453,10.469 -32.484,18.719 -50.609,24.375 -18.141,5.656 -37.406,8.719 -57.469,8.719 -26.734,0 -52.078,-5.438 -75.219,-15.219 C 146.094,419.625 116.469,395 95.563,364.079 85.094,348.626 76.844,331.61 71.188,313.47 65.532,295.33 62.484,276.063 62.469,256 c 0.016,-26.734 5.438,-52.094 15.219,-75.219 14.688,-34.672 39.313,-64.313 70.234,-85.219 15.453,-10.453 32.469,-18.719 50.609,-24.375 18.14,-5.656 37.406,-8.703 57.469,-8.703 26.75,0 52.094,5.422 75.219,15.219 34.688,14.672 64.313,39.297 85.219,70.219 10.469,15.453 18.719,32.484 24.375,50.609 5.656,18.156 8.719,37.406 8.719,57.469 -0.016,26.734 -5.438,52.094 -15.219,75.219 z"
   id="path6"
   style="fill:#ffffff" />
</g>
</svg>
