<svg xmlns="http://www.w3.org/2000/svg" width="32" height="32" viewBox="0 0 512 512">
  <circle cx="256" cy="256" r="256" fill="#22c55e"/>
  <g fill="#ffffff">
    <path d="M210.781,210.797l3.875-18.859l-63.031-41.578c-0.344-0.234-0.844-0.188-1.156,0.125
      c-0.297,0.297-0.344,0.797-0.109,1.156l41.578,63.016L210.781,210.797z"/>
    <path d="M320.063,297.344l-18.844,3.875l-3.875,18.844l63.031,41.578c0.344,0.25,0.844,0.188,1.156-0.125
      c0.297-0.297,0.344-0.781,0.094-1.141L320.063,297.344z"/>
    <path d="M320.063,214.656l41.578-63.016c0.234-0.359,0.188-0.859-0.109-1.156c-0.313-0.313-0.813-0.359-1.156-0.125
      l-63.031,41.578l3.875,18.859L320.063,214.656z"/>
    <path d="M191.938,297.344l-41.578,63.031c-0.234,0.359-0.188,0.844,0.109,1.141c0.313,0.313,0.813,0.375,1.156,0.125
      l63.031-41.578l-3.875-18.844L191.938,297.344z"/>
    <path d="M436.531,255.094l-149.094-30.531L256.906,75.484c-0.094-0.438-0.469-0.734-0.906-0.734
      s-0.813,0.297-0.906,0.734l-30.531,149.078L75.469,255.094c-0.406,0.094-0.719,0.469-0.719,0.906s0.313,0.813,0.719,0.906
      l149.094,30.547l30.531,149.063c0.094,0.438,0.469,0.734,0.906,0.734s0.813-0.297,0.906-0.734l30.531-149.063l149.094-30.547
      c0.406-0.094,0.719-0.469,0.719-0.906S436.938,255.188,436.531,255.094z M256,278.344c-12.344,0-22.344-10.016-22.344-22.344
      s10-22.344,22.344-22.344s22.344,10.016,22.344,22.344S268.344,278.344,256,278.344z"/>
  </g>
</svg>
